# xmcd
#
# Track frame offsets:
#	150
#	15680
#	33957
#	55847
#	69852
#	84460
#	103822
#	122617
#	142112
#	154132
#
# Disc length: 2257 seconds
#
# Revision: 4
# Processed by: cddbd v1.5.2PL0 Copyright (c) Steve Scherf et al.
# Submitted via: EZCDAudioConverter 6.0.5.1
#
DISCID=7e08cf0a
DTITLE=Various Artist - In The Key Of Women A Country Tribute
DYEAR=1997
DGENRE=Country
TTITLE0=Deana Carter - Rita Valentine
TTITLE1=Marty Stuart - You Can't Stop Love
TTITLE2=Trisha Yearwood - Little Hercules
TTITLE3=Mindy McCready - It ain't a Party
TTITLE4=The Buffalo Club - Wish For You
TTITLE5=Kathy Mattea - Sending Me Angels
TTITLE6=Mark Chesnutt - I'll Think Of Something
TTITLE7=Kim Richey - Straight as the Crow Flies
TTITLE8=Gary Allan - Forever and a Day
TTITLE9=Rhett Akins - Don't Get Me Started
EXTD=
EXTT0=
EXTT1=
EXTT2=
EXTT3=
EXTT4=
EXTT5=
EXTT6=
EXTT7=
EXTT8=
EXTT9=
PLAYORDER=
